<svg width="262" height="260" viewBox="0 0 262 260" fill="#cad2c5ff" xmlns="http://www.w3.org/2000/svg">
<path d="M72.5 0.5H5L40 49H107L72.5 0.5Z" fill="#cad2c5ff" stroke="#cad2c5ff"/>
<path d="M35.5 211H103L68 259.5H1L35.5 211Z" fill="#cad2c5ff" stroke="#cad2c5ff"/>
<path d="M226.5 211H159L194 259.5H261L226.5 211Z" fill="#cad2c5ff" stroke="#cad2c5ff"/>
<path d="M189.5 1H257L222 49.5H155L189.5 1Z" fill="#cad2c5ff" stroke="#cad2c5ff"/>
<path d="M5 112.15H23.45L38.3 143.2L43.1 155.65L47.9 143.2L62.6 112.15H80.6L44.45 181H41.3L5 112.15Z" fill="#cad2c5ff"/>
<path d="M119.642 182.5C113.442 182.5 107.692 181.05 102.392 178.15C97.1922 175.15 92.9922 170.95 89.7922 165.55C86.6922 160.05 85.1422 153.65 85.1422 146.35C85.1422 135.45 88.1922 126.75 94.2922 120.25C100.392 113.65 108.642 110.35 119.042 110.35C124.842 110.35 130.142 111.8 134.942 114.7C139.742 117.5 142.992 120.9 144.692 124.9L143.942 113.2V70.75H159.842V181H144.392L144.092 168.85C142.392 172.45 139.292 175.65 134.792 178.45C130.292 181.15 125.242 182.5 119.642 182.5ZM122.342 168.85C128.042 168.85 132.842 166.9 136.742 163C140.642 159 142.592 153.8 142.592 147.4V146.35C142.592 142.05 141.692 138.2 139.892 134.8C138.092 131.4 135.642 128.75 132.542 126.85C129.442 124.95 126.042 124 122.342 124C115.942 124 110.992 126.1 107.492 130.3C103.992 134.4 102.242 139.75 102.242 146.35C102.242 153.05 103.942 158.5 107.342 162.7C110.842 166.8 115.842 168.85 122.342 168.85Z" fill="#cad2c5ff"/>
<path d="M222.131 182.5C216.531 182.5 211.481 181.15 206.981 178.45C202.581 175.65 199.531 172.45 197.831 168.85L197.531 181H181.931V70.75H197.831V113.2L197.081 124.9C198.781 120.9 202.081 117.5 206.981 114.7C211.981 111.8 217.381 110.35 223.181 110.35C229.981 110.35 235.881 111.9 240.881 115C245.981 118 249.881 122.25 252.581 127.75C255.281 133.15 256.631 139.45 256.631 146.65C256.631 153.95 255.031 160.3 251.831 165.7C248.731 171.1 244.531 175.25 239.231 178.15C234.031 181.05 228.331 182.5 222.131 182.5ZM219.431 169C225.931 169 230.931 166.95 234.431 162.85C237.931 158.65 239.681 153.25 239.681 146.65C239.681 139.95 237.931 134.55 234.431 130.45C231.031 126.25 226.031 124.15 219.431 124.15C213.731 124.15 208.931 126.15 205.031 130.15C201.131 134.05 199.181 139.2 199.181 145.6V146.65C199.181 150.95 200.081 154.8 201.881 158.2C203.781 161.6 206.231 164.25 209.231 166.15C212.331 168.05 215.731 169 219.431 169Z" fill="#cad2c5ff"/>
</svg>
